<svg xmlns="http://www.w3.org/2000/svg" width="1000" height="1000" viewBox="0 0 1000 1000" version="1.1"><path d="M 474 56.111 C 384.894 61.133, 299.494 93.046, 228.500 147.850 C 108.090 240.802, 44.107 386.808, 57.088 539 C 66.777 652.590, 120.510 758.434, 207 834.298 C 309.350 924.073, 445.085 961.592, 580 937.400 C 641.535 926.366, 702.099 901.161, 754 864.987 C 783.196 844.637, 820.399 810.414, 842.774 783.321 C 932.123 675.133, 965.094 531.272, 931.920 394.359 C 902.272 272.001, 820.810 167.151, 709.081 107.543 C 636.598 68.873, 556.909 51.439, 474 56.111 M 476 75.653 C 427.438 77.654, 369.815 92.068, 321.500 114.301 C 259.881 142.657, 201.376 189.976, 160.524 244.500 C 93.147 334.427, 64.316 443.851, 78.582 555.500 C 90.185 646.301, 132.894 733.396, 197.804 798.618 C 268.363 869.518, 357.820 912.526, 456.500 922.990 C 473.776 924.822, 514.062 925.396, 531 924.051 C 682.543 912.024, 813.146 824.190, 880.507 689 C 922.757 604.206, 935.221 509.374, 916.454 415.500 C 888.294 274.646, 790.059 157.826, 654.500 103.985 C 624.207 91.953, 583.999 81.786, 552 78.065 C 530.979 75.621, 500.365 74.649, 476 75.653 M 480.852 84.077 C 403.774 87.404, 330.933 111.709, 264.682 156.207 C 225.736 182.365, 186.131 221.651, 158.153 261.877 C 94.487 353.415, 70.197 466.323, 90.461 576.524 C 111.906 693.139, 183.570 795.940, 286.500 857.737 C 366.776 905.933, 462.899 925.319, 557.500 912.392 C 632.859 902.094, 706.653 869.979, 763.225 822.862 C 832.525 765.145, 878.772 693.971, 901.984 609.315 C 911.802 573.508, 916.297 539.142, 916.217 500.500 C 916.146 466.257, 913.329 439.806, 906.470 409 C 867.135 232.321, 716.465 100.416, 536.500 85.107 C 517.744 83.511, 501.092 83.203, 480.852 84.077 M 564.750 109.299 C 561.833 110.452, 561.294 111.894, 563.105 113.705 C 563.912 114.512, 565.161 114.413, 567.731 113.339 C 571.133 111.917, 571.350 111.961, 574.140 114.634 C 576.792 117.175, 577.159 117.270, 578.635 115.794 C 580.110 114.318, 579.966 113.937, 576.871 111.123 C 573.270 107.850, 569.757 107.321, 564.750 109.299 M 510.500 112.893 C 504.742 114.375, 501.058 117.045, 498.317 121.723 C 495.998 125.680, 495.560 127.560, 495.585 133.467 C 495.618 141.353, 497.201 145.308, 501.906 149.267 C 507.865 154.282, 521.312 155.297, 528.347 151.263 C 531.513 149.447, 536 142.133, 536 138.788 C 536 137.309, 535.136 137, 531 137 C 526.630 137, 526 137.258, 526 139.045 C 526 140.170, 524.895 142.195, 523.545 143.545 C 520.888 146.202, 515.350 146.844, 510.613 145.043 C 503.067 142.174, 503.345 125.103, 511 121.279 C 516.919 118.321, 523.859 120.574, 525.626 126.026 C 526.672 129.254, 527.079 129.522, 531.376 129.805 C 535.630 130.085, 535.998 129.925, 535.978 127.805 C 535.934 123.177, 532.311 117.200, 528.315 115.161 C 523.906 112.912, 514.889 111.764, 510.500 112.893 M 457.250 114.732 C 454.486 115.068, 454.001 115.529, 454.004 117.813 C 454.007 120.120, 455.452 130.336, 457.565 143 C 458.026 145.767, 456.213 143.494, 448.912 132.151 L 439.675 117.802 433.087 118.488 C 429.464 118.866, 426.092 119.566, 425.593 120.045 C 424.693 120.907, 425.380 127.295, 428.686 148.815 L 430.271 159.130 434.386 158.451 C 436.649 158.077, 438.653 157.633, 438.839 157.463 C 439.026 157.293, 438.239 151.060, 437.089 143.612 C 435.940 136.163, 435 129.528, 435 128.866 C 435 128.205, 439.064 133.942, 444.032 141.616 L 453.063 155.567 460.532 154.620 C 466.338 153.884, 467.985 153.320, 467.933 152.087 C 467.677 146.020, 462.304 114.625, 461.500 114.497 C 460.950 114.409, 459.038 114.515, 457.250 114.732 M 388.539 119.527 C 385.347 123.012, 385.202 123.429, 386.781 124.597 C 388.248 125.682, 388.949 125.436, 391.562 122.921 C 394.399 120.189, 394.869 120.058, 397.965 121.137 C 400.877 122.153, 401.480 122.064, 402.663 120.446 C 404.374 118.106, 403.100 117.250, 396.581 116.356 C 392.245 115.762, 391.843 115.920, 388.539 119.527 M 556.502 119.575 C 550.030 122.950, 546.554 128.346, 545.440 136.744 C 544.211 146.002, 548.332 153.382, 556.884 157.236 C 562.810 159.907, 571.554 159.944, 576.630 157.320 C 583.881 153.571, 588.407 142.312, 586.579 132.570 C 585.720 127.990, 580.692 122.220, 575.509 119.865 C 570.468 117.575, 560.626 117.425, 556.502 119.575 M 396.194 126.969 C 388.876 129.064, 382.605 131.062, 382.258 131.409 C 381.565 132.101, 390.776 166.986, 392.007 168.335 C 392.716 169.111, 398.542 167.744, 415.258 162.878 C 421.779 160.980, 421.993 160.816, 421.379 158.205 C 421.028 156.717, 420.419 155.142, 420.024 154.704 C 419.630 154.265, 414.939 155.119, 409.600 156.600 C 403.763 158.219, 399.530 158.930, 398.982 158.382 C 398.481 157.881, 397.943 155.932, 397.786 154.050 L 397.500 150.629 405.500 148.318 C 416.829 145.046, 416.086 145.544, 414.866 142.045 C 414.282 140.370, 413.508 139, 413.145 139 C 412.783 139, 408.527 140.089, 403.688 141.421 L 394.890 143.841 393.905 141.249 C 392.141 136.611, 393.018 135.816, 403 132.999 C 410.218 130.963, 412.480 129.920, 412.417 128.660 C 412.181 123.961, 411.896 123.007, 410.750 123.080 C 410.063 123.124, 403.513 124.874, 396.194 126.969 M 562.263 126.199 C 558.103 127.293, 555.883 131.502, 555.272 139.455 C 554.721 146.634, 556.483 149.245, 563.078 151.021 C 570.692 153.071, 575.417 149.449, 576.836 140.474 C 577.818 134.264, 576.629 129.407, 573.751 127.867 C 570.144 125.937, 565.709 125.293, 562.263 126.199 M 602.482 127.290 C 600.963 131.616, 591 162.837, 591 163.270 C 591 163.900, 596.765 166, 598.493 166 C 599.155 166, 601.623 159.767, 604.029 152.019 C 606.418 144.330, 608.493 138.160, 608.642 138.309 C 608.791 138.458, 609.629 144.862, 610.505 152.540 C 612.762 172.329, 611.940 170.543, 619.982 173.133 C 623.817 174.368, 627.114 175.181, 627.308 174.939 C 628.635 173.290, 638.986 138.603, 638.327 138.013 C 637.872 137.606, 636.020 136.779, 634.211 136.175 C 630.347 134.885, 631.068 133.593, 625.384 151.976 C 620.940 166.346, 621.236 166.729, 618.937 143.660 C 617.507 129.318, 618.433 130.691, 608.121 127.629 C 604.151 126.450, 602.805 126.369, 602.482 127.290 M 357.326 139.837 C 352.280 141.851, 347.891 143.765, 347.571 144.088 C 347.252 144.411, 347.492 146.113, 348.105 147.871 C 349.026 150.514, 349.588 150.948, 351.359 150.383 C 355.790 148.970, 356.284 149.446, 360.103 158.805 C 365.545 172.140, 365.449 171.392, 361.879 172.740 C 359.120 173.781, 358.841 174.237, 359.452 176.708 C 359.831 178.244, 360.447 179.811, 360.821 180.191 C 361.360 180.740, 381.387 173.659, 382.885 172.390 C 383.096 172.211, 382.688 170.661, 381.977 168.946 C 380.691 165.840, 380.156 165.697, 375.128 167.113 C 374.189 167.378, 372.372 164.021, 369.381 156.500 C 366.976 150.450, 365.006 145.364, 365.004 145.198 C 365.002 145.032, 366.350 144.425, 368 143.850 C 369.650 143.275, 371 142.428, 371 141.967 C 371 139.810, 368.916 136.009, 367.775 136.087 C 367.074 136.134, 362.372 137.822, 357.326 139.837 M 653.384 149.854 C 644.793 153.879, 638.754 166.768, 641.201 175.855 C 642.348 180.114, 646.954 185.276, 651.560 187.461 C 655.468 189.316, 663.082 189.480, 664.947 187.750 C 666.342 186.455, 666.311 186.731, 664.566 191.050 C 664.123 192.145, 664.975 193.095, 667.468 194.283 L 670.997 195.966 675.498 187.003 C 677.974 182.073, 680 177.671, 680 177.219 C 680 176.396, 675.032 173.754, 665.266 169.382 L 660.031 167.039 658.550 169.904 L 657.068 172.768 663.115 175.391 C 669.510 178.164, 670.082 179.518, 665.862 181.897 C 662.419 183.839, 656.864 182.610, 653.072 179.067 C 649.166 175.419, 649.044 171.311, 652.628 164.119 C 655.993 157.365, 660.064 155.104, 665.775 156.815 C 670.771 158.311, 674.329 162.120, 674.223 165.857 C 674.153 168.309, 674.763 169.040, 678.146 170.566 C 682.705 172.622, 683.957 171.793, 683.985 166.700 C 684.048 155.167, 664.736 144.535, 653.384 149.854 M 330.919 150.981 L 327.338 152.875 329.625 167.187 C 330.883 175.059, 332.119 182.302, 332.371 183.281 C 332.772 184.841, 316.740 170.822, 311.595 165.113 C 309.232 162.492, 308.356 162.486, 304.130 165.062 L 300.761 167.116 303.130 169.660 C 304.434 171.060, 311.174 177.550, 318.108 184.083 L 330.717 195.961 336.358 192.905 C 339.461 191.225, 342 189.167, 342 188.332 C 342 187.497, 340.650 178.499, 339 168.337 C 337.350 158.175, 336 149.667, 336 149.431 C 336 148.628, 334.511 149.082, 330.919 150.981 M 714.500 186.393 C 707.222 189.581, 700.998 199.347, 701.004 207.566 C 701.008 213.630, 703.381 217.813, 709.217 222.047 C 712.840 224.675, 714.232 225.103, 718.251 224.827 C 723.515 224.465, 723.685 224.585, 721.423 227.085 C 719.970 228.691, 720.080 228.999, 722.833 231.035 C 724.476 232.250, 726.198 233.115, 726.660 232.957 C 727.632 232.627, 739.286 216.910, 738.815 216.566 C 738.642 216.440, 734.723 213.491, 730.106 210.014 C 723.510 205.045, 721.369 203.908, 720.106 204.703 C 717.073 206.613, 717.845 208.716, 722.955 212.467 C 728.247 216.351, 728.471 217.490, 724.259 219.092 C 718.482 221.288, 710 215.059, 710 208.619 C 710 202.278, 718.048 193, 723.549 193 C 726.349 193, 732.071 196.179, 733.674 198.626 C 734.513 199.905, 735.267 202.594, 735.349 204.601 C 735.467 207.440, 736.220 208.803, 738.748 210.751 L 741.996 213.253 743.596 209.425 C 745.730 204.318, 744.238 199.298, 738.849 193.452 C 731.809 185.814, 722.187 183.025, 714.500 186.393 M 268.557 188.478 L 265.613 190.883 270.417 196.998 C 273.059 200.361, 275.059 203.271, 274.860 203.465 C 274.662 203.659, 271.578 206.150, 268.007 209.001 L 261.513 214.185 259.007 210.877 C 257.628 209.057, 255.375 206.296, 254 204.740 L 251.500 201.911 248.073 204.785 L 244.645 207.660 256.466 222.830 C 262.968 231.173, 268.532 238, 268.832 238 C 269.661 238, 275.985 233.572, 275.993 232.986 C 275.997 232.703, 273.748 229.688, 270.995 226.286 L 265.990 220.100 272.745 214.596 L 279.500 209.092 282.500 212.730 C 284.150 214.730, 286.625 217.627, 288 219.168 L 290.500 221.970 293.909 219.131 L 297.317 216.292 285.515 201.146 C 279.024 192.816, 273.215 186.016, 272.606 186.036 C 271.998 186.056, 270.176 187.155, 268.557 188.478 M 442.534 210.945 C 441.899 211.973, 468.648 312, 469.901 313.283 C 470.895 314.300, 474 313.106, 474 311.706 C 474 310.889, 450.079 221.095, 447.372 211.750 C 446.836 209.899, 443.521 209.347, 442.534 210.945 M 544.588 211.750 C 544.287 212.713, 538.190 235.541, 531.037 262.481 C 519.572 305.668, 518.208 311.637, 519.510 312.938 C 520.531 313.960, 521.306 314.094, 522.026 313.374 C 523.402 311.998, 549.816 212.863, 549.236 211.250 C 548.564 209.382, 545.215 209.742, 544.588 211.750 M 757.655 213.829 C 755.505 216.204, 755.565 216.908, 758.154 219.664 L 760.307 221.956 752.444 230.228 C 748.120 234.778, 744.193 238.661, 743.719 238.857 C 743.245 239.054, 741.845 238.264, 740.608 237.102 L 738.359 234.989 735.947 237.556 L 733.535 240.124 741.817 248.240 L 750.098 256.357 752.749 253.706 L 755.400 251.055 753.012 248.512 L 750.623 245.970 754.553 241.735 C 756.714 239.406, 760.491 235.366, 762.945 232.758 L 767.408 228.017 770.020 230.519 L 772.632 233.021 775.015 230.484 L 777.399 227.946 769.473 219.973 C 765.114 215.588, 761.044 212, 760.428 212 C 759.813 212, 758.565 212.823, 757.655 213.829 M 231.155 220.340 L 227.878 223.721 239.189 234.393 L 250.500 245.065 241 241.624 C 235.775 239.731, 228.493 237.084, 224.819 235.740 L 218.137 233.298 212.842 238.659 L 207.548 244.021 221.494 257.994 L 235.440 271.966 238.739 268.769 L 242.038 265.571 231.338 254.838 L 220.639 244.105 235.569 249.532 C 243.781 252.517, 250.971 254.968, 251.547 254.979 C 252.518 254.998, 258.100 249.527, 260.764 245.946 C 261.727 244.650, 259.640 242.118, 248.176 230.676 L 234.433 216.959 231.155 220.340 M 494.200 230.200 C 493.331 231.069, 493 238.226, 493 256.118 C 493 269.713, 493.273 281.548, 493.607 282.418 C 493.941 283.288, 495.018 284, 496 284 C 496.982 284, 498.059 283.288, 498.393 282.418 C 498.727 281.548, 499 270.044, 499 256.852 C 499 230.637, 498.201 226.199, 494.200 230.200 M 797.400 243.161 C 796.936 243.912, 798.871 246.339, 802.580 249.661 L 808.500 254.963 810.318 252.787 C 812.083 250.674, 812.076 250.566, 810.069 249.055 C 804.796 245.086, 798.128 241.984, 797.400 243.161 M 776.500 253.531 C 767.150 257.097, 758.648 260.372, 757.608 260.810 C 755.851 261.549, 755.942 261.865, 758.882 265.213 L 762.049 268.820 766.035 267.254 C 768.228 266.393, 770.148 265.871, 770.304 266.094 C 770.459 266.317, 772.938 269.272, 775.813 272.659 L 781.040 278.818 778.913 282.424 L 776.785 286.029 779.514 289.607 C 781.750 292.539, 782.463 292.943, 783.459 291.843 C 784.349 290.860, 799.701 264.999, 803.653 257.825 C 804.128 256.963, 796.078 247.574, 794.606 247.274 C 793.998 247.150, 785.850 249.966, 776.500 253.531 M 408.667 252.667 C 407.221 254.113, 408.458 256.677, 421.128 278.493 C 430.729 295.025, 434.691 301.009, 435.878 300.768 C 436.770 300.586, 437.473 299.525, 437.441 298.409 C 437.383 296.429, 415.236 257.223, 412.213 253.750 C 410.579 251.872, 409.723 251.611, 408.667 252.667 M 567.682 273.723 C 560.769 285.724, 554.842 296.249, 554.511 297.111 C 553.792 298.985, 556.676 301.736, 557.966 300.408 C 560.275 298.028, 584.020 255.344, 583.767 254.027 C 583.607 253.200, 582.751 252.383, 581.865 252.212 C 580.696 251.987, 576.790 257.912, 567.682 273.723 M 192.348 262.750 C 184.413 273.041, 184.520 272.813, 186.557 275.063 C 188.890 277.641, 190.458 277.505, 192.667 274.531 L 194.500 272.062 204.185 279.660 L 213.870 287.257 211.698 290.195 L 209.525 293.133 212.013 295.044 C 213.381 296.096, 214.809 296.966, 215.187 296.978 C 215.564 296.990, 219.036 292.914, 222.900 287.921 L 229.927 278.841 227.213 276.425 L 224.500 274.009 222.065 276.913 L 219.630 279.818 209.795 272.244 L 199.961 264.670 201.981 262.521 C 203.091 261.338, 204 259.889, 204 259.301 C 204 258.390, 199.820 255, 198.697 255 C 198.492 255, 195.635 258.488, 192.348 262.750 M 785.250 259.808 C 781.263 261.277, 778.019 262.933, 778.042 263.489 C 778.065 264.045, 779.606 266.223, 781.466 268.330 L 784.850 272.159 786.279 269.830 C 791.777 260.868, 793.882 257.009, 793.241 257.069 C 792.833 257.107, 789.237 258.339, 785.250 259.808 M 354.385 262.439 C 354.081 263.231, 354.208 264.468, 354.666 265.189 C 357.128 269.060, 428.993 339.123, 429.916 338.552 C 430.512 338.184, 431 337.119, 431 336.186 C 431 334.239, 358.150 261, 356.214 261 C 355.512 261, 354.689 261.648, 354.385 262.439 M 597.745 297.755 C 577.499 318.007, 561 335.294, 561 336.255 C 561 337.252, 561.752 338, 562.755 338 C 565.046 338, 638 265.036, 638 262.745 C 638 261.748, 637.248 261, 636.245 261 C 635.270 261, 618.160 277.334, 597.745 297.755 M 805 286.698 C 791.162 293.932, 789.106 307.940, 800.053 320.407 C 806.288 327.509, 814.603 328.487, 824.254 323.255 C 836.407 316.667, 839.137 303.849, 830.723 292.885 C 825.810 286.484, 822.804 284.684, 816.263 284.226 C 811.388 283.885, 809.653 284.266, 805 286.698 M 174.366 289.862 C 168.584 293.492, 162.961 302.850, 163.035 308.718 C 163.111 314.688, 168.728 319.982, 174.999 319.993 C 178.041 319.999, 179.353 319.088, 185.067 313 C 188.680 309.150, 192.357 306, 193.236 306 C 198.114 306, 199.363 309.463, 196.490 315.020 C 194.592 318.689, 191.546 320.359, 188.031 319.656 C 185.665 319.183, 185.014 319.631, 183.089 323.056 L 180.872 327.001 183.501 328 C 191.237 330.942, 198.583 326.618, 204.048 315.906 C 206.335 311.422, 206.552 304.313, 204.484 301.580 C 202.185 298.542, 197.747 296.014, 194.700 296.007 C 190.321 295.996, 186.698 298.410, 182.048 304.438 C 177.576 310.234, 174.482 311.490, 172.011 308.513 C 169.117 305.026, 174.788 296.584, 179.623 297.181 C 181.694 297.437, 182.620 296.777, 184.337 293.821 C 185.513 291.797, 186.180 289.847, 185.820 289.487 C 184.083 287.750, 177.381 287.970, 174.366 289.862 M 809.871 295.006 C 807.875 296.061, 805.018 298.378, 803.522 300.156 C 800.231 304.068, 800.527 308.380, 804.441 313.511 C 808.939 319.409, 815.498 318.891, 823.323 312.022 C 826.455 309.272, 827 308.175, 827 304.624 C 827 298.539, 822.287 292.983, 817.177 293.044 C 815.155 293.069, 811.867 293.951, 809.871 295.006 M 346.104 315.914 C 345.337 316.400, 344.951 317.406, 345.247 318.149 C 345.891 319.765, 389.264 345, 391.397 345 C 393.538 345, 394.367 343.147, 392.977 341.472 C 392.009 340.306, 348.703 314.962, 347.769 315.015 C 347.621 315.024, 346.872 315.428, 346.104 315.914 M 621 327.839 C 604.387 337.622, 599.500 340.955, 599.500 342.500 C 599.500 343.745, 600.125 344.453, 601.158 344.376 C 602.070 344.308, 612.757 338.477, 624.908 331.418 C 640.700 322.243, 647 318.072, 647 316.791 C 647 313.281, 642.406 315.233, 621 327.839 M 495.808 341.109 L 496.266 352.219 483.883 351.859 L 471.500 351.500 471.500 356 L 471.500 360.500 483.836 360.142 L 496.172 359.784 495.836 386.893 L 495.500 414.001 500 414.001 L 504.500 414.001 504.164 386.893 L 503.828 359.784 516.164 360.142 L 528.500 360.500 528.500 356 L 528.500 351.500 516.117 351.859 L 503.734 352.219 504.192 341.109 L 504.650 330 500 330 L 495.350 330 495.808 341.109 M 638 362.057 C 611.875 369.122, 589.487 375.159, 588.250 375.471 C 585.804 376.088, 585.094 379.715, 587.257 380.545 C 587.948 380.810, 609.210 375.442, 634.507 368.616 C 659.803 361.789, 682.441 355.683, 684.812 355.047 C 688.404 354.083, 689.072 353.524, 688.812 351.705 C 688.641 350.503, 687.825 349.451, 687 349.365 C 686.175 349.280, 664.125 354.991, 638 362.057 M 303.336 351.567 C 303.005 352.429, 303.132 353.508, 303.617 353.965 C 304.900 355.171, 403.007 381.145, 404.903 380.780 C 405.781 380.611, 406.500 379.607, 406.500 378.548 C 406.500 376.853, 400.588 375.038, 357 363.349 C 329.775 356.048, 306.698 350.058, 305.719 350.037 C 304.739 350.017, 303.667 350.705, 303.336 351.567 M 615.386 401.436 C 614.111 404.760, 615.981 405, 643.129 405 L 670.139 405 669.820 402.750 L 669.500 400.500 642.725 400.234 C 619.932 400.007, 615.866 400.186, 615.386 401.436 M 322.500 402 C 322.160 402.550, 322.160 403.450, 322.500 404 C 323.165 405.076, 376.201 405.465, 377.264 404.402 C 377.593 404.073, 377.620 403.173, 377.324 402.402 C 376.881 401.247, 372.050 401, 349.952 401 C 333.141 401, 322.887 401.374, 322.500 402 M 634 429.691 C 618.802 432.235, 605.042 442.008, 599.369 454.288 C 596.805 459.840, 596.503 461.563, 596.531 470.500 C 596.558 479.264, 596.893 481.180, 599.235 486 C 605.607 499.108, 618.658 507.343, 646 515.506 C 664.720 521.096, 667.389 522.470, 667.809 526.740 C 668.568 534.460, 657.071 538.088, 643.718 534.341 C 636.172 532.224, 631.520 527.972, 629.829 521.649 L 628.573 516.956 611.037 517.228 L 593.500 517.500 593.232 541.250 L 592.964 565 609.902 565 L 626.841 565 627.367 562.250 C 627.656 560.737, 628.169 557.664, 628.506 555.420 L 629.118 551.339 633.292 555.155 C 643.336 564.335, 656.411 568.521, 672.500 567.705 C 684.627 567.090, 693.998 564.223, 702.486 558.531 C 717.277 548.613, 722.978 528.721, 715.448 513.310 C 709.973 502.107, 696.800 493.736, 670.309 484.628 C 644.664 475.811, 639.539 471.021, 646.920 462.766 C 649.752 459.600, 650.082 459.500, 657.750 459.500 C 664.800 459.500, 666.188 459.827, 670.531 462.513 C 676.066 465.936, 678.740 469.866, 679.812 476.153 L 680.554 480.500 697.777 480.774 L 715 481.047 715 457.024 L 715 433 698.561 433 L 682.121 433 681.437 439.940 L 680.753 446.880 675.884 441.880 C 666.691 432.443, 648.751 427.222, 634 429.691 M 322 445.500 L 322 458 328 458 L 334 458 334 499 L 334 540 328 540 L 322 540 322 552.500 L 322 565 354 565 L 386 565 386 552.500 L 386 540 380 540 L 374 540 374 499 L 374 458 380 458 L 386 458 386 445.500 L 386 433 354 433 L 322 433 322 445.500 M 431 445.500 L 431 458 436 458 L 441 458 441 499 L 441 540 436 540 L 431 540 431 552.500 L 431 565 462 565 L 493 565 493 552.500 L 493 540 487 540 L 481 540 481 526 L 481 512 498.500 512 L 516 512 516 526 L 516 540 510.500 540 L 505 540 505 552.500 L 505 565 536 565 L 567 565 567 552.500 L 567 540 561.500 540 L 556 540 556 499 L 556 458 561.500 458 L 567 458 567 445.500 L 567 433 536 433 L 505 433 505 445.500 L 505 458 510.500 458 L 516 458 516 472 L 516 486 498.500 486 L 481 486 481 472.050 L 481 458.100 486.750 457.800 L 492.500 457.500 492.781 445.250 L 493.062 433 462.031 433 L 431 433 431 445.500 M 276.265 515.686 C 275.187 517.234, 272.601 521.574, 270.520 525.332 C 267.481 530.819, 266.368 532.050, 264.868 531.582 C 263.841 531.262, 262.167 530.740, 261.149 530.422 C 260.105 530.096, 258.606 530.537, 257.709 531.433 C 256.321 532.822, 254.901 532.886, 246.434 531.942 C 234.782 530.643, 232.556 531.318, 228.854 537.271 C 215.769 558.320, 155.509 662.087, 155.208 664.090 C 154.620 668.012, 158.470 671.549, 165.500 673.545 C 205.477 684.895, 248.196 689.161, 286 685.578 C 306.794 683.607, 318.608 681.680, 351.130 674.953 C 386.848 667.564, 398.621 665.830, 413 665.838 C 427.538 665.847, 437.428 667.670, 446.555 672.026 C 454.244 675.696, 463.216 682.340, 469.089 688.714 L 473.498 693.500 495.299 693.805 L 517.101 694.109 524.300 687.211 C 536.603 675.425, 547.245 669.374, 562.724 665.367 C 571.833 663.009, 573.659 662.870, 589.500 663.329 C 607.526 663.852, 610.858 664.351, 654 672.993 C 723.775 686.970, 770.932 687.342, 826.245 674.351 C 838.052 671.579, 841.534 669.094, 840.783 663.977 C 840.577 662.573, 823.360 632.487, 802.523 597.119 C 772.987 546.984, 764.075 532.599, 762.087 531.843 C 760.408 531.205, 755.990 531.255, 749.157 531.991 C 739.634 533.016, 738.609 532.959, 736.742 531.304 C 735.008 529.767, 734.631 529.720, 734.190 530.992 C 733.905 531.812, 732.234 535.243, 730.476 538.616 L 727.279 544.749 753.037 589.624 C 772.865 624.168, 778.475 634.683, 777.405 635.295 C 774.102 637.186, 758.480 638.997, 745.470 638.999 C 724.164 639.001, 698.274 635.314, 647 624.975 C 587.845 613.048, 561.694 613.189, 536.500 625.572 C 522.006 632.696, 508.767 645.495, 502.736 658.215 C 498.965 666.168, 494.758 665.894, 491.112 657.458 C 485.645 644.811, 472.598 631.387, 459.500 624.931 C 445.192 617.879, 438.483 616.624, 415 616.608 C 391.843 616.592, 382.195 617.814, 344.853 625.488 C 299.901 634.727, 268.117 639.297, 249 639.270 C 237.234 639.253, 218.467 636.867, 216.773 635.173 C 216.186 634.586, 252.983 569.096, 276.784 528.366 L 280.953 521.231 287.266 523.523 C 290.739 524.783, 295.768 526.143, 298.442 526.544 C 303.214 527.259, 303.293 527.228, 302.666 524.886 C 302.315 523.574, 302.021 521.938, 302.014 521.250 C 302.006 520.563, 301.279 520, 300.398 520 C 299.044 520, 285.198 515.631, 279.863 513.520 C 278.752 513.081, 277.598 513.775, 276.265 515.686 M 229.250 594.344 C 211.512 625.326, 197 650.938, 197 651.260 C 197 653.313, 216.106 656.957, 232.500 658.031 C 258.086 659.706, 275.973 657.650, 328.793 646.962 C 377.484 637.109, 391.435 635.023, 408.715 635.010 C 418.632 635.003, 425.905 635.577, 432.772 636.908 C 450.699 640.383, 469.915 649.084, 480.916 658.708 C 483.712 661.154, 486 662.842, 486 662.458 C 486 660.624, 478.190 649.239, 473.331 643.990 C 458.718 628.207, 439.314 622.069, 408.036 623.337 C 390.079 624.065, 382.832 625.110, 348 631.995 C 295.358 642.400, 269.610 646, 247.844 646 C 230.085 646, 211.280 642.452, 207.983 638.480 C 207.045 637.349, 212.384 627.321, 234.906 587.915 C 250.358 560.881, 263 538.590, 263 538.381 C 263 535.939, 256.837 546.158, 229.250 594.344 M 732 538.552 C 732 539.075, 744.375 561.073, 759.500 587.436 C 774.625 613.800, 787 636.171, 787 637.150 C 787 639.509, 784.760 640.595, 774.818 643.059 C 763.898 645.765, 740.268 646.716, 724.847 645.069 C 708.811 643.356, 670.711 636.899, 642.417 631.097 C 609.822 624.414, 594.966 622.607, 578 623.263 C 561.225 623.910, 552.092 625.925, 540.310 631.577 C 526.937 637.993, 517.643 646.380, 509.382 659.486 C 507.634 662.261, 507.926 662.150, 513.500 657.927 C 531.381 644.380, 550.798 637.082, 574.506 634.999 C 592.954 633.379, 608.143 635.369, 666 646.990 C 705.746 654.973, 709.444 655.597, 728.439 657.530 C 746.388 659.356, 753.515 659.351, 769.358 657.497 C 780.429 656.202, 796.363 652.971, 797.555 651.778 C 797.962 651.371, 734.476 540.150, 732.922 538.550 C 732.340 537.950, 732 537.951, 732 538.552 M 208.196 603.463 L 175.178 659.500 179.339 660.808 C 185.079 662.613, 205.081 666.524, 219.500 668.661 C 228.649 670.017, 237.677 670.436, 257.500 670.424 C 288.601 670.405, 298.768 669.163, 348 659.361 C 365.875 655.803, 385 652.249, 390.500 651.464 C 402.311 649.778, 423.195 649.568, 431.566 651.051 C 449.004 654.140, 464.737 662.122, 476.716 673.958 C 481.697 678.880, 482.146 679.099, 486.690 678.806 L 491.447 678.500 483.846 670.809 C 467.533 654.303, 446.852 644.888, 420.433 641.942 C 403.365 640.039, 376.711 643.490, 330.908 653.535 C 309.579 658.212, 290.146 661.543, 272.412 663.561 C 254.030 665.653, 221.886 665.096, 210 662.481 C 199.360 660.139, 189.819 656.764, 188.709 654.948 C 187.989 653.771, 194.585 641.442, 215.992 603.948 C 231.520 576.752, 245.080 553.087, 246.125 551.361 L 248.026 548.222 244.620 547.824 L 241.214 547.427 208.196 603.463 M 750.748 547.956 L 746.995 548.500 776.995 601 C 793.495 629.875, 806.996 653.827, 806.997 654.227 C 807.003 655.777, 802.037 658.073, 794.435 660.035 C 761.293 668.590, 722.393 666.426, 659 652.500 C 638.538 648.005, 610.265 643.253, 596.090 641.926 C 570.893 639.567, 542.004 646.379, 523.327 659.081 C 518.110 662.629, 503 676.821, 503 678.173 C 503 678.628, 504.339 679, 505.975 679 C 508.242 679, 511.343 676.999, 519.004 670.594 C 530.543 660.944, 544.868 653.206, 557.500 649.796 C 564.385 647.938, 568.287 647.628, 585.500 647.569 C 607.635 647.493, 606.514 647.345, 650 656.045 C 699.256 665.899, 723.769 668.633, 754.500 667.701 C 774.675 667.089, 791.419 665.267, 809.721 661.692 L 820.943 659.500 788.361 604 C 770.441 573.475, 755.491 548.255, 755.139 547.956 C 754.788 547.657, 752.811 547.657, 750.748 547.956 M 466 591.472 C 461.325 594.459, 457.695 597.262, 457.933 597.702 C 458.789 599.278, 468.103 606.231, 468.640 605.693 C 469.086 605.248, 475.937 587.113, 475.986 586.250 C 476.036 585.356, 473.476 586.695, 466 591.472 M 514.189 587.862 C 515.236 590.307, 525.380 605.990, 525.885 605.944 C 527.130 605.831, 534.971 595.100, 534.170 594.605 C 532.176 593.373, 513.910 587.208, 514.189 587.862 M 492.601 608.679 C 490.634 614.553, 489.132 619.458, 489.263 619.580 C 489.393 619.703, 492.425 619.957, 496 620.146 C 503.528 620.544, 503.166 621.780, 499.769 607.250 C 498.580 602.163, 497.285 598, 496.892 598 C 496.499 598, 494.568 602.806, 492.601 608.679 M 234.573 759.854 L 226.135 776.708 231.031 781.531 C 236.771 787.184, 234.281 787.777, 255.214 775.779 L 269.928 767.346 265.538 763.038 C 260.585 758.177, 260.589 758.176, 252.230 763.824 C 241.278 771.225, 241.198 771.205, 246.052 762.353 C 248.420 758.034, 250.829 753.723, 251.405 752.773 C 252.253 751.375, 251.705 750.283, 248.523 747.023 C 246.362 744.811, 244.238 743, 243.803 743 C 243.367 743, 239.214 750.584, 234.573 759.854 M 750.264 747.544 C 744.681 750.908, 741 757.197, 741 763.370 C 741 769.666, 742.875 773.761, 747.787 778.193 C 756.661 786.200, 770.757 784.007, 777.081 773.634 C 779.616 769.477, 779.512 768.882, 775.797 766.285 L 772.628 764.071 768.967 768.035 C 764.755 772.598, 760.845 773.239, 756.770 770.034 C 750.676 765.240, 751.073 757.972, 757.651 753.907 L 761.067 751.796 759.081 748.648 C 756.520 744.591, 755.397 744.450, 750.264 747.544 M 696.210 772.871 C 694.445 777.749, 693 781.970, 693 782.249 C 693 782.924, 698.967 785.378, 699.407 784.885 C 700.648 783.495, 709 769.829, 709 769.189 C 709 768.568, 700.798 764, 699.683 764 C 699.539 764, 697.976 767.992, 696.210 772.871 M 297.250 768.259 C 294.913 769.433, 293 770.776, 293 771.242 C 293 772.211, 302.839 787, 303.483 787 C 304.642 787, 309 784.584, 309 783.941 C 309 782.369, 302.699 766.003, 302.117 766.062 C 301.777 766.096, 299.587 767.085, 297.250 768.259 M 717.735 769.799 C 716.215 770.724, 715.202 772.048, 715.485 772.741 C 715.768 773.433, 716.264 774.651, 716.587 775.448 C 716.968 776.386, 715.749 777.880, 713.121 779.698 C 710.892 781.239, 709.243 783.008, 709.456 783.629 C 709.670 784.251, 712.580 788.607, 715.922 793.310 C 722.499 802.564, 723.681 807.030, 720.066 808.965 C 715.310 811.510, 713.607 810.416, 706.505 800.250 C 702.759 794.888, 699.540 790.315, 699.353 790.089 C 698.948 789.601, 688.988 796.275, 689.040 797 C 689.173 798.836, 703.223 816.908, 705.942 818.740 C 715.609 825.254, 732.103 817.105, 733.725 805.014 C 734.473 799.437, 733.689 797.274, 727.707 788.406 C 723.107 781.587, 722.503 780.149, 723.311 777.946 C 724.017 776.021, 723.787 774.495, 722.374 771.754 L 720.500 768.117 717.735 769.799 M 276.033 788.519 C 268.330 800.207, 267.467 802.345, 268.413 807.389 C 270.540 818.727, 285.922 826.711, 295.800 821.603 C 298.417 820.250, 310.957 803.881, 312.543 799.749 C 312.987 798.591, 305.411 792, 303.635 792 C 303.340 792, 300.115 796.278, 296.469 801.508 C 288.217 813.343, 286.504 814.356, 281.750 810.215 C 278.895 807.728, 279.659 805.332, 286.500 795.313 C 290.075 790.078, 292.986 785.503, 292.969 785.147 C 292.937 784.491, 290.698 782.754, 285.791 779.577 L 283.082 777.824 276.033 788.519 M 323.655 825.250 C 319.426 834.188, 315.973 841.769, 315.983 842.098 C 316.012 843.127, 323.984 846.349, 324.708 845.625 C 325.087 845.246, 327.010 841.491, 328.981 837.279 L 332.566 829.621 335.033 841.007 C 337.304 851.489, 337.738 852.528, 340.500 854.092 C 347.513 858.062, 346.942 858.575, 355.360 840.765 C 359.588 831.819, 363.037 824.211, 363.024 823.859 C 363.004 823.318, 355.740 820, 354.576 820 C 354.365 820, 352.493 823.623, 350.415 828.051 C 348.070 833.047, 346.374 835.608, 345.944 834.801 C 345.562 834.085, 344.430 829.075, 343.426 823.666 L 341.602 813.832 336.834 811.416 C 334.212 810.087, 331.904 809, 331.705 809 C 331.506 809, 327.884 816.313, 323.655 825.250 M 650.500 817.115 C 645.550 819.352, 641.129 821.536, 640.675 821.967 C 640.221 822.398, 641.450 825.929, 643.406 829.814 C 646.795 836.543, 646.870 836.907, 644.982 837.506 C 642.868 838.177, 642.496 839.656, 643.888 841.853 C 644.565 842.921, 645.205 842.961, 646.924 842.040 C 648.973 840.944, 649.295 841.297, 652.302 847.932 C 654.061 851.814, 656.017 854.992, 656.648 854.995 C 657.280 854.998, 661.887 852.953, 666.885 850.450 C 678.199 844.786, 681.207 841.282, 681.801 833.074 C 682.117 828.701, 681.739 826.413, 680.205 823.421 C 674.405 812.107, 665.677 810.254, 650.500 817.115 M 569.750 825.162 C 566.896 826.205, 566.597 826.787, 567.590 829.375 C 568.023 830.503, 569.002 830.750, 571.258 830.298 C 574.005 829.749, 574.247 829.888, 573.515 831.591 C 572.444 834.083, 572.300 837.433, 573.250 837.750 C 576.556 838.852, 578.592 837.772, 579.850 834.250 C 581.561 829.460, 581.560 825.970, 579.848 824.885 C 578.083 823.766, 573.205 823.901, 569.750 825.162 M 656.785 825.060 C 655.350 825.897, 655.259 826.473, 656.223 828.591 C 657.115 830.548, 657.893 830.993, 659.648 830.552 C 662.931 829.728, 664.898 833.449, 662 835 C 660.284 835.918, 660.150 836.422, 661.123 838.292 C 661.754 839.506, 662.393 840.646, 662.543 840.824 C 662.692 841.002, 664.199 840.431, 665.893 839.556 C 670.588 837.127, 671.278 830.200, 667.267 825.750 C 665.524 823.816, 659.589 823.426, 656.785 825.060 M 386.481 836.394 C 379.438 839.463, 374.120 849.392, 375.493 856.909 C 377.248 866.518, 384.497 872.781, 394.961 873.730 C 399.968 874.184, 400.931 873.993, 401.784 872.379 C 403.440 869.246, 406.322 857.989, 405.643 857.309 C 405.293 856.959, 403.129 856.634, 400.834 856.587 C 396.883 856.505, 396.613 856.685, 395.741 860 C 394.546 864.542, 394.510 864.564, 391.487 862.583 C 386.493 859.311, 386.073 852.371, 390.574 847.514 C 393.409 844.456, 397.286 844.267, 401.723 846.973 L 404.946 848.938 407.593 845.466 C 409.887 842.459, 410.058 841.774, 408.870 840.339 C 405.024 835.691, 392.969 833.567, 386.481 836.394 M 589 839.195 C 586.525 839.735, 584.111 840.548, 583.636 841.003 C 583.153 841.464, 583.705 846.075, 584.886 851.442 C 587.300 862.418, 587.505 866.095, 585.800 867.800 C 584.224 869.376, 578.520 869.342, 577.241 867.750 C 576.688 867.063, 575.249 862, 574.041 856.500 C 572.834 851, 571.645 845.774, 571.399 844.887 C 571 843.448, 570.349 843.414, 565.376 844.570 C 562.310 845.283, 559.602 846.065, 559.359 846.308 C 558.542 847.125, 563.998 869.311, 565.781 872.422 C 566.752 874.115, 569.560 876.543, 572.023 877.818 C 580.806 882.365, 593.736 878.309, 597.904 869.698 C 599.057 867.317, 600.009 864.723, 600.019 863.934 C 600.054 861.323, 594.705 837.998, 594.097 838.107 C 593.769 838.166, 591.475 838.656, 589 839.195 M 455 852.371 L 455 857 458.629 857 L 462.258 857 461.655 862.750 C 461.323 865.913, 460.759 872.369, 460.401 877.097 L 459.750 885.694 465.557 886.294 C 468.751 886.623, 471.666 886.706, 472.036 886.478 C 472.406 886.249, 473.011 881.886, 473.381 876.781 C 473.751 871.676, 474.318 865.412, 474.641 862.860 L 475.228 858.221 479.114 858.742 L 483 859.263 483 854.775 L 483 850.287 473.750 849.617 C 468.663 849.248, 462.363 848.675, 459.750 848.344 L 455 847.742 455 852.371 M 526.353 850.522 C 526.011 851.415, 526.009 854.813, 526.350 858.073 C 526.949 863.810, 526.894 864, 524.610 864 C 523.312 864, 520.887 864.273, 519.220 864.606 L 516.190 865.212 515.467 857.488 L 514.743 849.763 510.232 850.382 C 507.751 850.722, 505.051 851, 504.232 851 C 502.950 851, 502.838 853.108, 503.427 866.250 C 504.400 887.949, 504.413 888.003, 508.861 887.986 C 510.863 887.979, 513.560 887.689, 514.855 887.342 C 517.084 886.745, 517.189 886.353, 516.828 879.962 L 516.447 873.212 521.473 872.715 C 524.238 872.442, 526.634 872.342, 526.798 872.491 C 526.962 872.641, 527.363 875.938, 527.688 879.818 L 528.279 886.873 533.390 886.352 C 536.200 886.065, 538.950 885.702, 539.500 885.544 C 540.167 885.353, 540.167 879.298, 539.500 867.379 L 538.500 849.500 532.738 849.200 C 528.159 848.961, 526.848 849.233, 526.353 850.522" stroke="none" fill="#f5f6f5" fill-rule="evenodd"/><path d="M 478.750 55.723 C 480.538 55.945, 483.462 55.945, 485.250 55.723 C 487.038 55.502, 485.575 55.320, 482 55.320 C 478.425 55.320, 476.962 55.502, 478.750 55.723 M 490.299 75.745 C 495.139 75.929, 502.789 75.928, 507.299 75.743 C 511.810 75.558, 507.850 75.408, 498.500 75.409 C 489.150 75.410, 485.460 75.562, 490.299 75.745 M 488.250 83.728 C 490.313 83.944, 493.688 83.944, 495.750 83.728 C 497.813 83.513, 496.125 83.336, 492 83.336 C 487.875 83.336, 486.188 83.513, 488.250 83.728 M 172.984 171.750 L 161.500 183.500 173.250 172.016 C 184.164 161.350, 185.454 160, 184.734 160 C 184.587 160, 179.300 165.287, 172.984 171.750 M 827.982 173.250 C 837.718 183.235, 839 184.454, 839 183.732 C 839 183.585, 834.163 178.747, 828.250 172.982 L 817.500 162.500 827.982 173.250 M 327.462 180.751 C 330.192 183.638, 332.458 186, 332.500 186 C 332.541 186, 332.624 184.988, 332.685 183.750 C 332.746 182.512, 332.565 182.105, 332.283 182.845 C 331.928 183.776, 330.341 182.851, 327.135 179.846 L 322.500 175.501 327.462 180.751 M 442.534 210.945 C 441.899 211.973, 468.648 312, 469.901 313.283 C 470.895 314.300, 474 313.106, 474 311.706 C 474 310.889, 450.079 221.095, 447.372 211.750 C 446.836 209.899, 443.521 209.347, 442.534 210.945 M 544.588 211.750 C 544.287 212.713, 538.190 235.541, 531.037 262.481 C 519.572 305.668, 518.208 311.637, 519.510 312.938 C 520.531 313.960, 521.306 314.094, 522.026 313.374 C 523.402 311.998, 549.816 212.863, 549.236 211.250 C 548.564 209.382, 545.215 209.742, 544.588 211.750 M 228 223.275 C 228 223.426, 231.488 226.914, 235.750 231.025 L 243.500 238.500 236.025 230.750 C 229.082 223.552, 228 222.544, 228 223.275 M 494.200 230.200 C 493.331 231.069, 493 238.226, 493 256.118 C 493 269.713, 493.273 281.548, 493.607 282.418 C 493.941 283.288, 495.018 284, 496 284 C 496.982 284, 498.059 283.288, 498.393 282.418 C 498.727 281.548, 499 270.044, 499 256.852 C 499 230.637, 498.201 226.199, 494.200 230.200 M 227 251.500 C 231.651 256.175, 235.680 260, 235.953 260 C 236.226 260, 233.185 256.713, 229.195 252.696 C 225.205 248.680, 222.291 245.007, 222.720 244.536 C 223.149 244.065, 222.938 244.003, 222.250 244.399 C 221.563 244.794, 221 244.641, 221 244.059 C 221 243.477, 220.447 243, 219.772 243 C 219.097 243, 222.349 246.825, 227 251.500 M 408.667 252.667 C 407.221 254.113, 408.458 256.677, 421.128 278.493 C 430.729 295.025, 434.691 301.009, 435.878 300.768 C 436.770 300.586, 437.473 299.525, 437.441 298.409 C 437.383 296.429, 415.236 257.223, 412.213 253.750 C 410.579 251.872, 409.723 251.611, 408.667 252.667 M 567.682 273.723 C 560.769 285.724, 554.842 296.249, 554.511 297.111 C 553.792 298.985, 556.676 301.736, 557.966 300.408 C 560.275 298.028, 584.020 255.344, 583.767 254.027 C 583.607 253.200, 582.751 252.383, 581.865 252.212 C 580.696 251.987, 576.790 257.912, 567.682 273.723 M 354.385 262.439 C 354.081 263.231, 354.208 264.468, 354.666 265.189 C 357.128 269.060, 428.993 339.123, 429.916 338.552 C 430.512 338.184, 431 337.119, 431 336.186 C 431 334.239, 358.150 261, 356.214 261 C 355.512 261, 354.689 261.648, 354.385 262.439 M 597.745 297.755 C 577.499 318.007, 561 335.294, 561 336.255 C 561 337.252, 561.752 338, 562.755 338 C 565.046 338, 638 265.036, 638 262.745 C 638 261.748, 637.248 261, 636.245 261 C 635.270 261, 618.160 277.334, 597.745 297.755 M 346.104 315.914 C 345.337 316.400, 344.951 317.406, 345.247 318.149 C 345.891 319.765, 389.264 345, 391.397 345 C 393.538 345, 394.367 343.147, 392.977 341.472 C 392.009 340.306, 348.703 314.962, 347.769 315.015 C 347.621 315.024, 346.872 315.428, 346.104 315.914 M 621 327.839 C 604.387 337.622, 599.500 340.955, 599.500 342.500 C 599.500 343.745, 600.125 344.453, 601.158 344.376 C 602.070 344.308, 612.757 338.477, 624.908 331.418 C 640.700 322.243, 647 318.072, 647 316.791 C 647 313.281, 642.406 315.233, 621 327.839 M 498 344 C 498 345.333, 498.667 346, 500 346 C 501.333 346, 502 345.333, 502 344 C 502 342.667, 501.333 342, 500 342 C 498.667 342, 498 342.667, 498 344 M 638 362.057 C 611.875 369.122, 589.487 375.159, 588.250 375.471 C 585.804 376.088, 585.094 379.715, 587.257 380.545 C 587.948 380.810, 609.210 375.442, 634.507 368.616 C 659.803 361.789, 682.441 355.683, 684.812 355.047 C 688.404 354.083, 689.072 353.524, 688.812 351.705 C 688.641 350.503, 687.825 349.451, 687 349.365 C 686.175 349.280, 664.125 354.991, 638 362.057 M 303.336 351.567 C 303.005 352.429, 303.132 353.508, 303.617 353.965 C 304.900 355.171, 403.007 381.145, 404.903 380.780 C 405.781 380.611, 406.500 379.607, 406.500 378.548 C 406.500 376.853, 400.588 375.038, 357 363.349 C 329.775 356.048, 306.698 350.058, 305.719 350.037 C 304.739 350.017, 303.667 350.705, 303.336 351.567 M 498 351.051 C 497.107 351.664, 491.440 351.964, 484 351.791 L 471.500 351.500 471.500 355.962 L 471.500 360.424 484 360.617 C 490.875 360.723, 498.075 360.810, 500 360.810 C 501.925 360.810, 509.125 360.723, 516 360.617 L 528.500 360.424 528.500 356.005 L 528.500 351.587 515.500 351.543 C 508.350 351.519, 501.825 351.167, 501 350.761 C 500.175 350.354, 498.825 350.485, 498 351.051 M 472 356.008 C 472 360.226, 472.018 360.246, 475.125 359.625 C 476.844 359.281, 479.706 359, 481.486 359 C 484.399 359, 484.675 358.750, 484.245 356.500 C 483.850 354.437, 484.157 354, 486 354 C 487.843 354, 488.150 354.437, 487.755 356.500 C 487.317 358.793, 487.576 359, 490.889 359 C 494.235 359, 494.500 358.780, 494.500 356 L 494.500 353 485.500 352.986 C 480.550 352.979, 475.488 352.701, 474.250 352.370 C 472.176 351.814, 472 352.098, 472 356.008 M 515.250 352.746 L 505 353.070 505 356.035 C 505 358.734, 505.302 359, 508.361 359 C 511.408 359, 511.678 358.766, 511.245 356.500 C 510.850 354.437, 511.157 354, 513 354 C 514.843 354, 515.150 354.437, 514.755 356.500 C 514.314 358.806, 514.567 359, 518.014 359 C 520.069 359, 523.156 359.281, 524.875 359.625 C 527.971 360.244, 528 360.212, 528 356.125 C 528 353.379, 527.582 352.071, 526.750 352.211 C 526.063 352.327, 520.888 352.568, 515.250 352.746 M 498 369 C 498 370.333, 498.667 371, 500 371 C 501.333 371, 502 370.333, 502 369 C 502 367.667, 501.333 367, 500 367 C 498.667 367, 498 367.667, 498 369 M 615.386 401.436 C 614.111 404.760, 615.981 405, 643.129 405 L 670.139 405 669.820 402.750 L 669.500 400.500 642.725 400.234 C 619.932 400.007, 615.866 400.186, 615.386 401.436 M 322.500 402 C 322.160 402.550, 322.160 403.450, 322.500 404 C 323.165 405.076, 376.201 405.465, 377.264 404.402 C 377.593 404.073, 377.620 403.173, 377.324 402.402 C 376.881 401.247, 372.050 401, 349.952 401 C 333.141 401, 322.887 401.374, 322.500 402 M 638.750 429.723 C 640.538 429.945, 643.462 429.945, 645.250 429.723 C 647.038 429.502, 645.575 429.320, 642 429.320 C 638.425 429.320, 636.962 429.502, 638.750 429.723 M 322.389 445.500 C 322.390 452.650, 322.550 455.444, 322.742 451.708 C 322.935 447.973, 322.934 442.123, 322.739 438.708 C 322.545 435.294, 322.387 438.350, 322.389 445.500 M 385.389 445.500 C 385.390 452.650, 385.550 455.444, 385.742 451.708 C 385.935 447.973, 385.934 442.123, 385.739 438.708 C 385.545 435.294, 385.387 438.350, 385.389 445.500 M 492.385 445 C 492.385 451.875, 492.545 454.688, 492.740 451.250 C 492.936 447.813, 492.936 442.188, 492.740 438.750 C 492.545 435.313, 492.385 438.125, 492.385 445 M 334.457 498.500 C 334.456 521.050, 334.588 530.418, 334.749 519.317 C 334.909 508.216, 334.910 489.766, 334.749 478.317 C 334.589 466.868, 334.457 475.950, 334.457 498.500 M 373.457 499 C 373.457 521.825, 373.588 531.163, 373.749 519.750 C 373.909 508.338, 373.909 489.663, 373.749 478.250 C 373.588 466.838, 373.457 476.175, 373.457 499 M 441.457 499 C 441.457 521.825, 441.588 531.163, 441.749 519.750 C 441.909 508.338, 441.909 489.663, 441.749 478.250 C 441.588 466.838, 441.457 476.175, 441.457 499 M 480.397 472 C 480.397 479.975, 480.553 483.238, 480.743 479.250 C 480.932 475.262, 480.932 468.738, 480.743 464.750 C 480.553 460.762, 480.397 464.025, 480.397 472 M 516.397 472 C 516.397 479.975, 516.553 483.238, 516.743 479.250 C 516.932 475.262, 516.932 468.738, 516.743 464.750 C 516.553 460.762, 516.397 464.025, 516.397 472 M 680.404 478 L 680.500 480.500 697.751 480.536 L 715.002 480.573 698.065 480.263 C 681.456 479.959, 681.120 479.910, 680.718 477.727 C 680.368 475.832, 680.321 475.873, 680.404 478 M 55.336 484 C 55.336 488.125, 55.513 489.813, 55.728 487.750 C 55.944 485.688, 55.944 482.313, 55.728 480.250 C 55.513 478.188, 55.336 479.875, 55.336 484 M 75.355 487.500 C 75.352 492.450, 75.521 494.601, 75.731 492.280 C 75.940 489.959, 75.943 485.909, 75.736 483.280 C 75.530 480.651, 75.358 482.550, 75.355 487.500 M 944.336 486 C 944.336 490.125, 944.513 491.813, 944.728 489.750 C 944.944 487.688, 944.944 484.313, 944.728 482.250 C 944.513 480.188, 944.336 481.875, 944.336 486 M 83.336 487 C 83.336 491.125, 83.513 492.813, 83.728 490.750 C 83.944 488.688, 83.944 485.313, 83.728 483.250 C 83.513 481.188, 83.336 482.875, 83.336 487 M 916.343 488.500 C 916.346 492.900, 916.522 494.576, 916.733 492.224 C 916.945 489.872, 916.942 486.272, 916.727 484.224 C 916.512 482.176, 916.339 484.100, 916.343 488.500 M 75.320 514 C 75.320 517.575, 75.502 519.038, 75.723 517.250 C 75.945 515.462, 75.945 512.538, 75.723 510.750 C 75.502 508.962, 75.320 510.425, 75.320 514 M 480.447 512.277 C 480.168 513.005, 480.080 519.653, 480.251 527.050 L 480.563 540.500 480.782 526.250 L 481 512 498.473 512 L 515.945 512 516.264 525.750 L 516.582 539.500 516.541 525.500 L 516.500 511.500 498.728 511.227 C 484.710 511.011, 480.848 511.233, 480.447 512.277 M 593.449 518.272 C 593.181 518.971, 593.091 529.884, 593.250 542.522 L 593.539 565.500 593.770 541.773 L 594 518.046 611.750 517.748 L 629.500 517.451 611.719 517.225 C 598.087 517.053, 593.823 517.297, 593.449 518.272 M 322.389 552.500 C 322.390 559.650, 322.550 562.444, 322.742 558.708 C 322.935 554.973, 322.934 549.123, 322.739 545.708 C 322.545 542.294, 322.387 545.350, 322.389 552.500 M 385.389 552.500 C 385.390 559.650, 385.550 562.444, 385.742 558.708 C 385.935 554.973, 385.934 549.123, 385.739 545.708 C 385.545 542.294, 385.387 545.350, 385.389 552.500 M 492.389 552.500 C 492.390 559.650, 492.550 562.444, 492.742 558.708 C 492.935 554.973, 492.934 549.123, 492.739 545.708 C 492.545 542.294, 492.387 545.350, 492.389 552.500 M 739.750 639.732 C 742.087 639.943, 745.913 639.943, 748.250 639.732 C 750.587 639.522, 748.675 639.349, 744 639.349 C 739.325 639.349, 737.413 639.522, 739.750 639.732 M 731.750 683.723 C 733.538 683.945, 736.462 683.945, 738.250 683.723 C 740.038 683.502, 738.575 683.320, 735 683.320 C 731.425 683.320, 729.962 683.502, 731.750 683.723 M 485.250 693.746 C 491.163 693.923, 500.837 693.923, 506.750 693.746 C 512.663 693.569, 507.825 693.425, 496 693.425 C 484.175 693.425, 479.337 693.569, 485.250 693.746 M 183 812.500 C 186.543 816.075, 189.667 819, 189.942 819 C 190.217 819, 187.543 816.075, 184 812.500 C 180.457 808.925, 177.333 806, 177.058 806 C 176.783 806, 179.457 808.925, 183 812.500 M 827.481 827.250 L 817.500 837.500 827.750 827.519 C 833.388 822.029, 838 817.417, 838 817.269 C 838 816.545, 836.752 817.730, 827.481 827.250 M 172 827.500 C 177.203 832.725, 181.685 837, 181.960 837 C 182.235 837, 178.203 832.725, 173 827.500 C 167.797 822.275, 163.315 818, 163.040 818 C 162.765 818, 166.797 822.275, 172 827.500 M 488.250 916.728 C 490.313 916.944, 493.688 916.944, 495.750 916.728 C 497.813 916.513, 496.125 916.336, 492 916.336 C 487.875 916.336, 486.188 916.513, 488.250 916.728 M 481.768 924.725 C 483.565 924.947, 486.265 924.943, 487.768 924.715 C 489.271 924.486, 487.800 924.304, 484.500 924.310 C 481.200 924.315, 479.971 924.502, 481.768 924.725 M 515.750 924.723 C 517.538 924.945, 520.462 924.945, 522.250 924.723 C 524.038 924.502, 522.575 924.320, 519 924.320 C 515.425 924.320, 513.962 924.502, 515.750 924.723 M 478.750 944.723 C 480.538 944.945, 483.462 944.945, 485.250 944.723 C 487.038 944.502, 485.575 944.320, 482 944.320 C 478.425 944.320, 476.962 944.502, 478.750 944.723" stroke="none" fill="#debe69" fill-rule="evenodd"/><path d="M 495.375 333.125 C 495.719 334.844, 496 339.810, 496 344.160 C 496 351.760, 496.078 352.028, 498 351 C 499.421 350.240, 500.579 350.240, 502 351 C 503.922 352.028, 504 351.760, 504 344.160 C 504 339.810, 504.281 334.844, 504.625 333.125 L 505.250 330 500 330 L 494.750 330 495.375 333.125 M 498 344 C 498 345.333, 498.667 346, 500 346 C 501.333 346, 502 345.333, 502 344 C 502 342.667, 501.333 342, 500 342 C 498.667 342, 498 342.667, 498 344 M 472 356.008 C 472 360.226, 472.018 360.246, 475.125 359.625 C 476.844 359.281, 479.706 359, 481.486 359 C 484.399 359, 484.675 358.750, 484.245 356.500 C 483.850 354.437, 484.157 354, 486 354 C 487.843 354, 488.150 354.437, 487.755 356.500 C 487.317 358.793, 487.576 359, 490.889 359 C 494.235 359, 494.500 358.780, 494.500 356 L 494.500 353 485.500 352.986 C 480.550 352.979, 475.488 352.701, 474.250 352.370 C 472.176 351.814, 472 352.098, 472 356.008 M 515.250 352.746 L 505 353.070 505 356.035 C 505 358.734, 505.302 359, 508.361 359 C 511.408 359, 511.678 358.766, 511.245 356.500 C 510.850 354.437, 511.157 354, 513 354 C 514.843 354, 515.150 354.437, 514.755 356.500 C 514.314 358.806, 514.567 359, 518.014 359 C 520.069 359, 523.156 359.281, 524.875 359.625 C 527.971 360.244, 528 360.212, 528 356.125 C 528 353.379, 527.582 352.071, 526.750 352.211 C 526.063 352.327, 520.888 352.568, 515.250 352.746 M 495.833 385.727 C 495.742 399.077, 495.629 410.788, 495.583 411.750 C 495.516 413.170, 496.349 413.500, 500 413.500 C 503.651 413.500, 504.484 413.170, 504.417 411.750 C 504.371 410.788, 504.258 399.077, 504.167 385.727 L 504 361.455 500 361.455 L 496 361.455 495.833 385.727 M 498 369 C 498 370.333, 498.667 371, 500 371 C 501.333 371, 502 370.333, 502 369 C 502 367.667, 501.333 367, 500 367 C 498.667 367, 498 367.667, 498 369 M 626.317 432.072 C 618.247 434.630, 608.442 441.291, 603.961 447.261 C 598.721 454.242, 596.599 460.995, 596.661 470.500 C 596.733 481.626, 599.499 488.500, 606.868 495.865 C 615.650 504.643, 622.332 507.697, 654.351 517.570 C 663.664 520.442, 669 523.904, 669 527.073 C 669 528.116, 667.709 530.413, 666.132 532.178 C 663.546 535.073, 662.597 535.431, 656.484 535.820 C 647.340 536.402, 639.729 534.579, 635.386 530.766 C 631.504 527.357, 629 523.155, 629 520.050 C 629 518.062, 628.475 518, 611.500 518 L 594 518 594 541.500 L 594 565 610.402 565 L 626.804 565 627.516 558.750 C 627.907 555.313, 628.434 552.153, 628.686 551.729 C 628.938 551.304, 631.249 552.814, 633.822 555.083 C 643.262 563.408, 654.575 567.347, 669 567.331 C 690.415 567.306, 707.655 558.580, 714.688 544.205 C 718.548 536.315, 719.114 523.947, 715.994 515.670 C 711.381 503.432, 699.546 495.351, 672.556 486.009 C 649.744 478.114, 644 474.641, 644 468.746 C 644 464.332, 645.749 461.999, 650.698 459.809 C 657.694 456.715, 668.088 458.907, 674.376 464.803 C 677.619 467.844, 680.945 474.367, 680.978 477.750 C 681 479.994, 681.044 480, 698 480 L 715 480 715 456.500 L 715 433 699.067 433 C 681.037 433, 682.662 432.133, 681.493 442.382 L 680.823 448.263 676.529 443.355 C 668.645 434.343, 657.113 429.959, 641.540 430.056 C 635.469 430.094, 630.469 430.756, 626.317 432.072 M 323 445.500 L 323 458 329.011 458 L 335.022 458 334.761 498.750 L 334.500 539.500 328.750 539.800 L 323 540.100 323 552.550 L 323 565 354 565 L 385 565 385 552.500 L 385 540 379 540 L 373 540 373 499 L 373 458 379 458 L 385 458 385 445.500 L 385 433 354 433 L 323 433 323 445.500 M 431 445.500 L 431 458 436.500 458 L 442 458 442 499 L 442 540 436.500 540 L 431 540 431 552.500 L 431 565 461.500 565 L 492 565 492 552.500 L 492 540 485.973 540 L 479.945 540 480.223 525.750 L 480.500 511.500 498.500 511.500 L 516.500 511.500 516.777 525.750 L 517.055 540 511.027 540 L 505 540 505 552.500 L 505 565 536 565 L 567 565 567 552.500 L 567 540 561.500 540 L 556 540 556 499.052 L 556 458.105 561.250 457.802 L 566.500 457.500 566.781 445.250 L 567.062 433 536 433 L 504.938 433 505.219 445.250 L 505.500 457.500 511.250 457.800 L 517 458.100 517 472.050 L 517 486 498.500 486 L 480 486 480 472 L 480 458 486 458 L 492 458 492 445.500 L 492 433 461.500 433 L 431 433 431 445.500 M 271.923 523.451 L 266.703 532.903 263.196 531.437 C 260.050 530.123, 259.503 530.140, 257.884 531.605 C 256.304 533.035, 254.865 533.113, 246.310 532.231 C 236.463 531.216, 233.392 531.618, 231.249 534.200 C 230.606 534.975, 213.412 563.916, 193.040 598.513 C 162.002 651.224, 156 662.028, 156 665.186 C 156 668.011, 156.563 669.305, 158.250 670.358 C 162.304 672.886, 180.051 677.376, 204 681.931 C 214.320 683.893, 234.478 685.922, 250 686.559 C 276.191 687.634, 302.507 684.567, 349.500 674.962 C 384.527 667.803, 394.820 666.120, 407.995 665.398 C 432.189 664.072, 449.449 669.978, 465.342 685.022 L 473.770 693 495.508 693 L 517.245 693 523.611 687.045 C 535.850 675.596, 546.914 669.306, 561.771 665.352 C 569.944 663.177, 573.626 662.767, 584.992 662.771 C 601.871 662.777, 607.754 663.594, 648 671.514 C 710.567 683.826, 744.095 686.087, 787.500 680.920 C 808.995 678.362, 834.742 672.839, 838.189 670.048 C 842.959 666.186, 842.563 665.380, 802.828 598.065 C 782.234 563.175, 764.285 533.831, 762.942 532.856 C 760.710 531.235, 759.517 531.181, 749.061 532.225 C 740.282 533.102, 737.531 533.092, 737.228 532.184 C 737.011 531.533, 736.240 531, 735.514 531 C 733.972 531, 731.586 537.100, 732.802 537.934 C 734.700 539.235, 798.092 651.303, 797.332 652.012 C 795.686 653.546, 779.261 656.882, 767.500 658.070 C 742.967 660.549, 719.991 658.175, 669 647.891 C 619.470 637.902, 607.521 635.982, 590.664 635.302 C 558.545 634.006, 534.848 641.564, 509.549 661.173 C 507.926 662.431, 506.992 662.794, 507.473 661.980 C 515.661 648.135, 526.145 638.094, 539.078 631.707 C 552.149 625.252, 558.401 623.920, 578.500 623.308 C 598.496 622.698, 608.274 623.834, 641.500 630.627 C 669.581 636.368, 705.355 642.460, 723.409 644.577 C 741.018 646.642, 761.022 645.993, 774.047 642.935 C 784.384 640.508, 787.918 638.311, 786.458 635.219 C 785.931 634.104, 773.350 612.037, 758.501 586.181 C 731.206 538.655, 730.294 537.348, 728.462 543.119 C 728.023 544.502, 735.006 557.575, 752.850 588.779 C 766.602 612.825, 777.999 633.156, 778.177 633.957 C 779.035 637.827, 751.183 640.826, 731 639.036 C 714.394 637.564, 677.841 631.598, 648.500 625.571 C 610.070 617.677, 585.591 615.002, 569 616.883 C 548.239 619.237, 531.845 626.050, 519.226 637.567 C 512.560 643.651, 503.049 656.110, 501.043 661.387 C 500.277 663.402, 499.364 664, 497.053 664 C 494.388 664, 493.726 663.336, 491.086 658.015 C 476.453 628.522, 449.420 614.524, 410.544 616.309 C 393.748 617.081, 372.750 620.065, 348.679 625.103 C 295.752 636.179, 253.751 641.396, 235.528 639.157 C 224.163 637.760, 216 635.946, 216 634.818 C 216 634.208, 279.267 522.706, 280.416 521.290 C 280.509 521.175, 283.941 522.137, 288.043 523.427 C 292.144 524.717, 296.962 526.085, 298.750 526.466 C 301.869 527.131, 302 527.033, 302 524.048 C 302 522.337, 301.438 520.780, 300.750 520.587 C 300.063 520.395, 295 518.827, 289.500 517.104 C 284 515.381, 278.970 513.977, 278.322 513.985 C 277.674 513.993, 274.795 518.253, 271.923 523.451 M 228.702 594.750 C 205.159 635.867, 196.563 651.704, 197.496 652.239 C 200.857 654.168, 216.906 657.118, 229.833 658.181 C 240.984 659.099, 247.943 659.088, 261.178 658.132 C 280.496 656.736, 287.016 655.665, 335 646.002 C 353.975 642.181, 375.800 638.145, 383.500 637.033 C 423.434 631.266, 454.536 638.248, 480.316 658.767 L 487.131 664.192 484.668 659.331 C 478.149 646.467, 467.145 635.760, 454.464 629.943 C 443.566 624.944, 437.734 623.853, 419 623.308 C 397.785 622.690, 388.138 623.819, 349.165 631.483 C 297.122 641.716, 267.419 645.974, 248 645.983 C 230.563 645.992, 208.912 641.422, 208.161 637.575 C 207.975 636.620, 220.237 614.104, 235.411 587.539 C 250.585 560.974, 263 538.960, 263 538.620 C 263 535.521, 256.894 545.514, 228.702 594.750 M 237.113 553.807 C 234.926 557.551, 220.047 582.831, 204.049 609.986 C 182.903 645.876, 175.307 659.574, 176.230 660.150 C 179.338 662.089, 206.906 667.389, 224.994 669.525 C 239.471 671.234, 271.127 671.464, 286.144 669.969 C 301.635 668.426, 324.400 664.592, 354.027 658.535 C 368.617 655.552, 386.392 652.354, 393.527 651.429 C 428.656 646.876, 455.447 654.115, 476.152 673.756 C 481.564 678.890, 482.008 679.104, 486.610 678.809 L 491.416 678.500 485.006 671.656 C 463.783 648.999, 429.784 637.885, 394 641.907 C 381.195 643.346, 354.229 648.099, 336 652.130 C 282.838 663.886, 248.330 667.258, 219.666 663.501 C 207.219 661.869, 191.337 657.711, 189.087 655.495 C 187.874 654.300, 191.927 646.657, 217.824 601.310 C 243.387 556.549, 247.710 548.412, 246.237 547.829 C 242.273 546.258, 241.055 547.056, 237.113 553.807 M 748.750 547.668 C 747.788 547.931, 747 548.343, 747 548.583 C 747 548.824, 760.275 572.243, 776.500 600.627 C 792.725 629.010, 806 653.048, 806 654.045 C 806 656.471, 798.391 659.262, 783.838 662.176 C 774.183 664.109, 769.309 664.448, 751 664.463 C 738.752 664.473, 725.412 663.919, 720 663.177 C 701.557 660.647, 681.120 657.007, 660.367 652.555 C 614.573 642.733, 590.400 639.809, 572.350 641.910 C 545.834 644.995, 525.013 654.523, 509.058 670.873 L 501.615 678.500 505.958 678.815 C 509.913 679.102, 510.710 678.737, 514.900 674.727 C 536.355 654.196, 560.009 645.851, 592.500 647.354 C 606.901 648.019, 620.323 650.101, 648.044 655.967 C 694.242 665.744, 718.941 668.483, 753.500 667.662 C 766.700 667.348, 781.100 666.606, 785.500 666.013 C 797.838 664.349, 821.008 659.854, 820.936 659.139 C 820.901 658.788, 806.142 633.525, 788.138 603 C 753.498 544.268, 754.751 546.029, 748.750 547.668 M 465.520 592.152 L 457.539 597.268 462.020 601.131 C 464.484 603.256, 467.020 604.996, 467.655 604.997 C 468.546 604.999, 475 589.579, 475 587.448 C 475 586.364, 472.999 587.356, 465.520 592.152 M 515.590 589.250 C 519.142 595.518, 525.344 605, 525.892 605 C 527.328 605, 534.198 595.799, 533.368 594.988 C 532.639 594.275, 516.368 588, 515.250 588 C 515.047 588, 515.201 588.563, 515.590 589.250 M 493.177 608.379 C 491.430 614.113, 490 619.073, 490 619.402 C 490 619.731, 492.700 620, 496 620 C 499.300 620, 502 619.584, 502 619.076 C 502 617.059, 497.728 599.451, 497.063 598.727 C 496.673 598.301, 494.924 602.645, 493.177 608.379" stroke="none" fill="#b91f1c" fill-rule="evenodd"/><path d="M 465.500 38.143 C 385.375 44.431, 309.494 70.503, 244 114.248 C 190.236 150.158, 142.617 198.770, 108.888 252.177 C 80.816 296.628, 61.066 343.703, 48.549 396 C 40.678 428.887, 36.346 473.494, 37.331 511.500 C 39.858 608.940, 71.264 699.703, 129.373 777.500 C 148.479 803.080, 181.789 837.918, 205.696 857.325 C 268.445 908.264, 337.443 940.636, 413.694 954.912 C 468.559 965.184, 524.612 965.525, 580 955.923 C 641.842 945.201, 699.791 922.255, 753.500 887.222 C 805.501 853.302, 851.063 808.073, 885.686 756 C 957.319 648.267, 980.473 514.908, 949.406 389 C 932.767 321.564, 901.095 258.749, 856.376 204.495 C 842.727 187.935, 812.300 157.485, 795.500 143.572 C 750.239 106.091, 696.362 76.355, 644.317 60.133 C 602.143 46.988, 573.439 41.346, 532.050 38.066 C 516.572 36.839, 481.595 36.880, 465.500 38.143 M 462.500 56.523 C 454.800 57.230, 444.675 58.320, 440 58.946 C 373.799 67.803, 309.048 92.401, 252.756 130.077 C 204.432 162.420, 162.433 204.339, 130.600 252 C 81.006 326.254, 54.962 411.337, 55.009 498.950 C 55.089 651.044, 130.262 789.726, 258 873.437 C 274.505 884.254, 283.872 889.543, 304.416 899.649 C 389.849 941.673, 486.649 954.826, 582 937.368 C 621.695 930.100, 657.151 918.278, 695.500 899.522 C 772.814 861.710, 837.536 802.298, 881.807 728.500 C 958.691 600.339, 965.815 440.809, 900.649 306.564 C 866.259 235.718, 816.894 178.299, 751 132.499 C 728.703 117.002, 690.755 96.806, 664 86.199 C 621.947 69.528, 579.167 59.702, 532.605 56.020 C 515.502 54.667, 479.922 54.922, 462.500 56.523 M 465 76.619 C 418.165 81.969, 393.938 87.260, 357 100.205 C 254.421 136.155, 167.233 214.123, 118.481 313.500 C 86.753 378.173, 72.603 447.582, 76.079 521.489 C 82.720 662.705, 159.720 790.952, 282 864.461 C 307.796 879.969, 340.518 894.944, 368.049 903.841 C 405.647 915.992, 438.785 921.955, 480.441 924.066 C 533.879 926.773, 585.043 919.576, 637 902.045 C 772.445 856.344, 876.997 742.796, 911.894 603.500 C 938.355 497.873, 922.900 383.807, 869.469 290.400 C 807.517 182.095, 701.534 106.056, 580.500 83.074 C 551.137 77.498, 542.442 76.748, 504 76.473 C 484.475 76.333, 466.925 76.399, 465 76.619 M 472.500 84.105 C 344.397 92.134, 225.045 161.082, 153.307 268.500 C 92.869 358.999, 70.300 468.990, 90.111 576.500 C 111.285 691.416, 181.455 793.433, 282 855.482 C 376.534 913.821, 494.181 931.565, 603 903.898 C 699.682 879.316, 782.765 821.959, 841.283 739.397 C 910.317 641.998, 933.750 515.564, 904.435 398.649 C 886.125 325.624, 848.603 259.379, 795.575 206.455 C 760.460 171.411, 727.015 147.279, 684.572 126.363 C 617.469 93.296, 547.694 79.392, 472.500 84.105 M 565.261 109.447 C 563.010 110.453, 562.204 111.368, 562.618 112.447 C 563.329 114.299, 563.745 114.333, 567.910 112.881 C 570.725 111.900, 571.408 112.034, 573.474 113.976 C 575.156 115.556, 576.462 115.988, 578.039 115.488 C 580.238 114.790, 580.235 114.773, 577.374 111.916 C 573.857 108.404, 569.558 107.528, 565.261 109.447 M 506.500 114.417 C 499.536 117.526, 495.989 124.286, 496.016 134.399 C 496.046 145.179, 500.992 150.912, 512.076 153.014 C 523.432 155.168, 532.547 150.766, 534.757 142.060 L 535.787 138 531.894 138 C 529.752 138, 527.663 137.920, 527.250 137.821 C 526.837 137.723, 526.343 138.510, 526.150 139.571 C 525.385 143.788, 521.979 146, 516.249 146 C 511.611 146, 510.432 145.586, 507.923 143.077 C 505.328 140.482, 505 139.465, 505 134.027 C 505 123.850, 508.101 120, 516.299 120 C 521.339 120, 525.426 122.577, 526.373 126.351 C 526.852 128.260, 527.813 128.846, 531.216 129.302 C 533.551 129.615, 535.612 129.721, 535.795 129.538 C 535.979 129.354, 535.815 127.531, 535.431 125.485 C 534.509 120.568, 530.031 115.625, 525.182 114.173 C 519.997 112.619, 510.242 112.747, 506.500 114.417 M 455.232 115.836 C 454.219 116.478, 454.371 119.413, 455.982 130.375 C 458.599 148.188, 458.583 148.338, 454.682 141.941 C 451.753 137.137, 440.127 118.972, 439.495 118.210 C 439.211 117.869, 425.702 119.965, 425.245 120.421 C 425.074 120.593, 426.157 129.119, 427.654 139.367 L 430.374 158 434.021 158 C 436.026 158, 437.888 157.778, 438.159 157.508 C 438.430 157.237, 437.659 150.149, 436.446 141.758 C 435.233 133.366, 434.379 126.346, 434.547 126.157 C 434.715 125.968, 435.578 127.218, 436.465 128.933 C 437.352 130.648, 441.506 137.264, 445.694 143.634 L 453.311 155.216 458.405 154.552 C 467.117 153.417, 468.037 153.022, 467.511 150.644 C 467.251 149.465, 466.113 141.975, 464.982 134 C 462.160 114.087, 462.436 114.997, 459.231 115.015 C 457.729 115.024, 455.929 115.393, 455.232 115.836 M 392.500 116.954 C 389.597 118.155, 385.679 122.672, 386.454 123.926 C 387.593 125.768, 389.753 125.110, 391.802 122.297 C 393.667 119.737, 393.972 119.656, 397.595 120.768 C 400.569 121.681, 401.591 121.670, 402.194 120.721 C 403.521 118.631, 403.116 118.126, 399.250 117.053 C 394.948 115.858, 395.143 115.861, 392.500 116.954 M 556.240 120.046 C 548.844 123.819, 545.510 130.962, 546.187 141.588 C 546.690 149.499, 548.720 152.538, 555.980 156.250 C 561.802 159.227, 569.454 159.915, 574.685 157.933 C 585.901 153.684, 590.563 135.342, 582.902 125.603 C 577.615 118.881, 564.061 116.056, 556.240 120.046 M 396.500 127.277 C 388.800 129.442, 382.355 131.347, 382.178 131.511 C 381.859 131.808, 391.690 168.023, 392.238 168.572 C 392.504 168.838, 421.322 161.092, 421.581 160.685 C 421.646 160.583, 421.313 159.074, 420.842 157.332 L 419.985 154.164 409.443 157.016 L 398.900 159.867 398.044 157.614 C 395.565 151.095, 395.787 150.808, 405.500 147.985 C 414.192 145.458, 414.493 145.272, 414.295 142.562 C 414.182 141.019, 413.923 139.590, 413.719 139.386 C 413.515 139.181, 409.557 140.127, 404.924 141.486 C 400.291 142.846, 396.013 143.967, 395.418 143.979 C 394.102 144.005, 391.755 136.820, 392.775 135.886 C 393.453 135.265, 398.717 133.667, 408.759 131.035 C 412.711 129.998, 412.972 129.723, 412.380 127.209 C 412.029 125.719, 411.462 124.239, 411.121 123.921 C 410.779 123.603, 404.200 125.113, 396.500 127.277 M 559.707 127.016 C 555.353 130.441, 553.214 141.794, 555.957 146.920 C 558.205 151.120, 566.302 153.187, 571.405 150.861 C 576.514 148.534, 579.822 135.429, 576.558 130.448 C 573.161 125.264, 564.244 123.447, 559.707 127.016 M 602.548 128.250 C 601.708 130.945, 591.681 161.568, 591.282 162.655 C 590.922 163.637, 595.318 165.366, 598.434 165.469 C 598.948 165.486, 601.471 158.975, 604.041 151 C 606.611 143.025, 608.953 137.175, 609.244 138 C 609.536 138.825, 610.303 144.900, 610.949 151.500 C 612.971 172.172, 612.292 170.467, 619.358 172.624 C 622.736 173.656, 625.877 174.500, 626.339 174.500 C 626.923 174.500, 638.776 140.595, 638.984 138.328 C 639.056 137.549, 631.634 135.979, 631.014 136.642 C 630.573 137.114, 628.289 143.687, 625.938 151.249 C 623.588 158.811, 621.506 164.839, 621.311 164.644 C 621.115 164.449, 620.089 156.957, 619.030 147.996 C 617.971 139.036, 616.743 131.370, 616.302 130.963 C 615.566 130.283, 605.015 127, 603.565 127 C 603.220 127, 602.762 127.563, 602.548 128.250 M 357.339 140.196 L 347.178 144.211 348.219 147.197 C 349.261 150.188, 349.717 150.303, 354.921 148.887 C 355.912 148.617, 357.625 151.672, 360.590 159 C 362.927 164.775, 364.876 170.018, 364.920 170.652 C 364.964 171.286, 363.616 172.287, 361.924 172.876 C 359.344 173.776, 358.960 174.315, 359.537 176.224 C 360.773 180.314, 361.696 180.435, 369.220 177.499 C 384.043 171.714, 382.990 172.435, 381.681 168.966 C 380.914 166.935, 380.008 166.058, 379.010 166.381 C 373.136 168.281, 373.709 168.818, 369.219 157.220 C 366.899 151.226, 365 145.835, 365 145.240 C 365 144.645, 366.350 143.862, 368 143.500 C 369.650 143.138, 371 142.719, 371 142.570 C 371 141.337, 368.663 136.020, 368.152 136.090 C 367.793 136.140, 362.927 137.987, 357.339 140.196 M 331.750 151.115 C 329.688 152.178, 328.005 153.600, 328.012 154.274 C 328.019 154.948, 329.144 162.181, 330.512 170.347 C 331.880 178.513, 333 185.449, 333 185.762 C 333 186.074, 327.619 181.062, 321.042 174.623 L 309.083 162.917 304.950 165.026 L 300.817 167.134 315.051 180.817 C 322.880 188.343, 329.887 194.644, 330.622 194.819 C 332.339 195.230, 342.020 189.820, 341.930 188.500 C 341.892 187.950, 340.430 178.878, 338.681 168.341 L 335.500 149.182 331.750 151.115 M 652.018 151.130 C 647.644 153.797, 646.500 155.206, 643.325 161.843 C 638.422 172.089, 641.646 182.230, 651.289 186.898 C 656.527 189.434, 661.707 189.594, 664.954 187.320 C 667.252 185.710, 667.319 185.721, 666.563 187.570 C 664.709 192.101, 664.837 192.690, 667.955 193.982 C 669.665 194.690, 671.214 195.096, 671.398 194.885 C 671.581 194.673, 673.567 190.554, 675.810 185.731 L 679.888 176.962 669.976 171.988 C 660.574 167.270, 660.010 167.113, 659.032 168.941 C 657.368 172.050, 657.700 172.489, 664.001 175.501 L 670.002 178.369 667.827 180.684 C 664.239 184.503, 657.708 183.672, 652.250 178.701 C 647.945 174.780, 650.392 162.983, 656.509 158.171 C 662.918 153.130, 675 158.270, 675 166.037 C 675 168.032, 675.835 169.028, 678.624 170.358 C 680.617 171.308, 682.454 171.879, 682.707 171.626 C 682.960 171.373, 683.167 169.053, 683.167 166.470 C 683.167 162.764, 682.547 161.007, 680.226 158.137 C 673.471 149.783, 659.798 146.387, 652.018 151.130 M 714.459 186.820 C 707.243 190.204, 701.064 199.738, 701.022 207.554 C 700.972 216.721, 711.147 225.914, 720.026 224.723 L 723.914 224.202 722.272 226.707 C 720.700 229.106, 720.734 229.292, 723.065 231.084 C 724.404 232.113, 725.783 232.966, 726.129 232.978 C 726.935 233.006, 738 218.335, 738 217.237 C 738 216.783, 734.117 213.536, 729.372 210.021 C 721.213 203.979, 720.669 203.733, 719.372 205.506 C 718.617 206.538, 718 207.650, 718 207.978 C 718 208.305, 720.328 210.311, 723.174 212.436 L 728.349 216.299 725.947 218.244 C 721.511 221.836, 713.658 218.776, 710.468 212.212 C 708.317 207.787, 709.842 203.243, 715.438 197.403 C 718.818 193.876, 720.338 193.001, 723.079 193.004 C 729.886 193.011, 736.755 199.477, 735.677 204.864 C 735.213 207.187, 735.638 208.096, 738.014 209.852 C 741.687 212.568, 742.619 212.550, 743.370 209.750 C 744.815 204.356, 744.017 200.178, 740.715 195.849 C 733.825 186.815, 722.658 182.975, 714.459 186.820 M 269.110 188.561 L 266.066 191.122 270.533 196.811 C 272.989 199.940, 274.999 202.799, 274.999 203.164 C 275 203.529, 272.015 206.203, 268.366 209.106 L 261.733 214.385 259.116 211.408 C 257.677 209.771, 255.375 207, 254 205.250 L 251.500 202.069 248.237 204.868 L 244.974 207.667 254.737 220.112 C 260.107 226.956, 265.489 233.812, 266.698 235.347 L 268.896 238.137 271.948 235.880 C 273.627 234.639, 275 233.221, 275 232.727 C 275 232.234, 272.898 229.156, 270.329 225.886 C 267.646 222.471, 266.050 219.600, 266.579 219.138 C 272.553 213.928, 280.260 208.793, 280.817 209.652 C 283.381 213.605, 289.568 221, 290.311 221 C 290.806 221, 292.495 219.920, 294.063 218.600 L 296.915 216.200 285.208 201.144 C 278.768 192.863, 273.197 186.068, 272.827 186.044 C 272.456 186.020, 270.784 187.152, 269.110 188.561 M 757.934 214.570 L 755.572 217.084 758.278 219.292 L 760.983 221.500 752.353 230.804 L 743.723 240.109 741.046 237.544 L 738.368 234.979 735.934 237.580 L 733.500 240.182 742 248.028 L 750.500 255.874 752.950 253.464 L 755.400 251.055 753.200 248.713 C 751.990 247.425, 751 245.940, 751 245.413 C 751 244.887, 754.739 240.736, 759.310 236.189 C 767.571 227.971, 767.631 227.934, 769.465 229.961 C 771.783 232.523, 773.208 232.532, 775.500 230 C 777.248 228.068, 777.245 227.928, 775.405 225.887 C 774.357 224.726, 770.529 221.138, 766.898 217.916 L 760.296 212.056 757.934 214.570 M 230.971 220.531 L 228.594 223.061 239.922 234.422 L 251.250 245.782 234.577 239.702 L 217.903 233.621 212.701 238.893 L 207.500 244.165 221.490 257.583 C 229.184 264.962, 235.791 271, 236.172 271 C 236.552 271, 237.834 269.638, 239.019 267.973 L 241.175 264.945 229.838 253.896 C 223.602 247.818, 219.400 243.173, 220.500 243.573 C 221.600 243.973, 229.025 246.673, 237 249.571 L 251.500 254.842 256.760 249.695 L 262.021 244.548 248.774 231.274 C 241.489 223.973, 235.037 218, 234.438 218 C 233.839 218, 232.279 219.139, 230.971 220.531 M 798 243.784 C 798 244.215, 800.405 246.943, 803.344 249.846 L 808.689 255.124 810.263 252.722 C 811.819 250.347, 811.766 250.279, 805.580 246.660 C 799.106 242.873, 798 242.453, 798 243.784 M 776 254.118 C 765.825 258.005, 757.348 261.334, 757.162 261.514 C 756.976 261.695, 757.867 263.254, 759.142 264.978 C 760.845 267.282, 761.995 267.959, 763.480 267.532 C 770.358 265.556, 770.258 265.516, 775.861 272.422 L 781.198 278.999 779.052 282.636 L 776.907 286.272 779.188 288.886 C 780.443 290.324, 781.739 291.852, 782.067 292.282 C 782.663 293.063, 803 259.154, 803 257.380 C 803 256.866, 801.087 254.331, 798.750 251.747 L 794.500 247.050 776 254.118 M 192 263.560 C 188.425 268.232, 185.371 272.430, 185.213 272.888 C 185.055 273.347, 186.125 274.507, 187.591 275.467 C 190.206 277.181, 190.294 277.164, 192.397 274.526 L 194.540 271.840 203.732 278.954 C 208.787 282.866, 213.160 286.449, 213.448 286.916 C 213.737 287.383, 213.096 288.880, 212.023 290.243 L 210.074 292.721 212.550 295.047 C 214.037 296.444, 215.364 296.999, 215.871 296.437 C 218.910 293.064, 229 279.577, 229 278.887 C 229 278.425, 227.890 277.319, 226.533 276.429 C 224.172 274.883, 223.966 274.928, 221.773 277.477 L 219.481 280.142 209.725 272.498 L 199.968 264.853 202.068 261.905 L 204.167 258.956 201.834 257.011 C 200.550 255.942, 199.275 255.066, 199 255.065 C 198.725 255.065, 195.575 258.887, 192 263.560 M 785.500 259.339 C 781.100 260.993, 777.337 262.469, 777.138 262.618 C 776.644 262.990, 784.082 272.003, 784.870 271.988 C 785.634 271.973, 794.386 257.018, 793.867 256.616 C 793.665 256.460, 789.900 257.686, 785.500 259.339 M 806.500 286.387 C 792.600 292.970, 789.391 305.606, 798.450 318.083 C 802.437 323.574, 807.099 326, 813.666 326 C 821.076 326, 830.104 320.472, 833.589 313.800 C 838.073 305.217, 832.188 290.260, 822.616 285.913 C 817.097 283.407, 812.509 283.542, 806.500 286.387 M 175.263 289.944 C 170.581 292.095, 165.694 298.709, 163.921 305.293 C 162.557 310.357, 165.076 315.738, 170.060 318.406 C 175.373 321.251, 178.405 319.997, 186.059 311.794 C 191.505 305.957, 193.007 304.867, 194.817 305.442 C 197.998 306.452, 199.220 309.290, 197.934 312.685 C 196.104 317.512, 193.041 320, 188.924 320 C 185.730 320, 184.904 320.497, 183.148 323.475 L 181.097 326.949 185.060 328.016 C 188.366 328.906, 189.741 328.766, 193.354 327.168 C 197.963 325.129, 200.823 321.810, 203.994 314.823 C 207.593 306.894, 205.839 301.037, 198.773 297.383 C 193.593 294.704, 190.275 296.122, 182.848 304.187 C 176.524 311.054, 176.068 311.352, 173.598 310.227 C 168.113 307.728, 172.579 297, 179.104 297 C 181.328 297, 182.500 296.227, 183.990 293.776 C 185.069 292.002, 185.625 290.234, 185.226 289.846 C 183.409 288.082, 179.226 288.123, 175.263 289.944 M 810.203 294.586 C 804.397 297.479, 801 301.491, 801 305.454 C 801 311.232, 806.884 318.009, 811.885 317.991 C 818.176 317.968, 828 309.705, 828 304.436 C 828 301.559, 823.637 294.864, 820.810 293.402 C 817.128 291.498, 816.191 291.602, 810.203 294.586 M 234.946 760.123 L 226.500 777.123 231.270 781.636 L 236.041 786.148 240.270 783.779 C 263.492 770.768, 269 767.540, 269 766.939 C 269 766.555, 266.987 764.592, 264.528 762.576 L 260.055 758.911 250.943 765.038 C 245.932 768.408, 241.679 771.012, 241.492 770.825 C 241.305 770.639, 243.578 766.214, 246.543 760.993 C 249.508 755.772, 251.836 751.248, 251.717 750.939 C 251.598 750.630, 249.676 748.745, 247.446 746.750 L 243.392 743.122 234.946 760.123 M 752.500 746.573 C 737.134 754.564, 737.560 774.904, 753.232 781.452 C 761.675 784.980, 771.168 781.940, 776.165 774.106 L 779.103 769.500 775.873 766.778 L 772.643 764.057 769.244 768.028 C 766.383 771.370, 765.239 772, 762.026 772 C 758.907 772, 757.639 771.353, 755.104 768.465 C 751.107 763.914, 750.994 759.852, 754.760 756.087 C 756.277 754.569, 758.190 753.092, 759.010 752.805 C 760.288 752.358, 760.229 751.766, 758.593 748.642 C 756.406 744.468, 756.491 744.497, 752.500 746.573 M 696.329 773.533 L 693.229 782.067 696.066 783.534 L 698.902 785.001 703.253 778.250 C 705.646 774.538, 707.934 770.955, 708.337 770.288 C 708.813 769.503, 707.665 768.359, 705.075 767.038 C 702.878 765.917, 700.708 765, 700.254 765 C 699.800 765, 698.034 768.840, 696.329 773.533 M 296.676 769.106 L 292.851 771.124 294.597 773.812 C 303.666 787.775, 302.968 787.068, 306.089 785.454 L 308.942 783.979 305.971 775.921 C 304.337 771.489, 303 767.669, 303 767.432 C 303 766.480, 300.298 767.195, 296.676 769.106 M 717.689 770.114 C 716.336 770.901, 716.035 771.881, 716.498 773.990 C 717.031 776.416, 716.561 777.259, 713.140 780.008 L 709.162 783.205 714.930 791.352 C 724.114 804.323, 724.585 806.260, 719.383 809.668 C 715.579 812.161, 713.077 810.331, 705.570 799.563 L 698.877 789.964 694.439 793.152 C 691.997 794.905, 690 796.741, 690 797.233 C 690 797.725, 693.126 802.536, 696.946 807.924 C 706.634 821.588, 712.047 823.771, 722.871 818.377 C 729.917 814.866, 733.500 809.525, 733.500 802.532 C 733.500 797.958, 732.903 796.546, 727.851 789.162 C 722.838 781.833, 722.260 780.478, 722.714 777.097 C 723.195 773.506, 721.788 768.963, 720.215 769.030 C 719.822 769.047, 718.685 769.535, 717.689 770.114 M 278.687 785.250 C 269.692 797.985, 268.833 799.646, 268.833 804.314 C 268.833 806.768, 269.506 810.065, 270.327 811.639 C 275.398 821.350, 288.353 825.932, 296.058 820.740 C 298.789 818.900, 312.857 800.793, 312.949 799 C 312.971 798.582, 309.488 796.046, 304.415 792.785 C 303.731 792.345, 300.670 795.913, 296.455 802.065 C 289.083 812.826, 286.780 814.396, 282.493 811.587 C 278.471 808.952, 279.272 805.573, 286.471 794.808 L 292.942 785.131 288.774 782.065 C 286.482 780.379, 284.267 779, 283.854 779 C 283.440 779, 281.115 781.813, 278.687 785.250 M 330.258 812.250 C 329.673 813.487, 326.245 820.688, 322.639 828.251 L 316.082 842.001 320.138 844.070 C 322.369 845.208, 324.359 845.974, 324.562 845.771 C 324.764 845.569, 326.536 841.878, 328.500 837.570 C 330.463 833.261, 332.319 829.985, 332.623 830.290 C 332.927 830.594, 334.209 835.626, 335.471 841.471 C 336.733 847.317, 337.931 852.247, 338.133 852.427 C 339.143 853.328, 347.240 857.094, 347.534 856.799 C 347.721 856.612, 348.757 854.443, 349.836 851.980 C 350.915 849.516, 354.301 842.213, 357.360 835.751 L 362.924 824.002 359.002 822.001 C 356.845 820.900, 354.908 820, 354.698 820 C 354.488 820, 352.602 823.847, 350.507 828.549 C 348.412 833.251, 346.368 836.738, 345.965 836.299 C 345.562 835.860, 344.480 831.225, 343.561 826 C 341.287 813.075, 341.432 813.390, 336.942 811.593 C 331.814 809.542, 331.524 809.570, 330.258 812.250 M 658.700 814.013 C 657.161 814.475, 652.348 816.521, 648.005 818.559 L 640.108 822.265 643.674 829.346 C 647.237 836.421, 647.239 836.430, 645.143 837.821 C 643.475 838.929, 643.254 839.605, 644.064 841.120 C 644.898 842.678, 645.457 842.826, 647.128 841.932 C 648.252 841.330, 649.259 840.987, 649.366 841.169 C 649.473 841.351, 650.884 844.347, 652.501 847.828 C 654.119 851.308, 655.773 854.360, 656.177 854.610 C 657.689 855.544, 674.737 846.064, 677.781 842.596 C 689.315 829.460, 675.613 808.933, 658.700 814.013 M 658 824.264 C 656.625 824.885, 655.371 825.471, 655.213 825.567 C 655.054 825.663, 655.477 826.952, 656.151 828.432 C 657.098 830.510, 657.879 830.996, 659.584 830.568 C 662.491 829.839, 663.832 832.919, 661.386 834.707 C 659.954 835.754, 659.857 836.391, 660.810 838.483 C 662.228 841.595, 664.140 841.673, 667.393 838.750 C 671.247 835.287, 671.254 830.643, 667.411 826.077 C 664.681 822.832, 662.221 822.358, 658 824.264 M 570.261 825.462 C 566.097 827.303, 566.698 830.445, 571.032 829.493 C 574.408 828.751, 575.435 830.046, 573.500 832.603 C 571.285 835.529, 571.630 838.003, 574.250 837.985 C 577.494 837.963, 578.414 837.028, 579.981 832.162 C 580.978 829.068, 581.080 827.347, 580.338 826.162 C 578.978 823.988, 574.325 823.665, 570.261 825.462 M 386.500 836.819 C 379.671 840.060, 376 846.208, 376 854.403 C 376 864.675, 382.437 871.637, 393.500 873.331 C 400.467 874.398, 401.401 873.675, 403.863 865.306 C 405.085 861.152, 405.954 857.634, 405.793 857.490 C 405.632 857.346, 403.614 856.917, 401.310 856.536 L 397.119 855.844 396.021 859.922 C 394.745 864.661, 393.001 865.092, 389.455 861.545 C 386.300 858.391, 386.232 853.439, 389.282 848.898 C 392.046 844.782, 396.769 843.897, 401.738 846.564 C 404.972 848.300, 404.977 848.299, 407.238 845.425 C 408.482 843.843, 409.500 842.097, 409.500 841.544 C 409.500 839.655, 401.020 835.857, 395.756 835.389 C 391.907 835.046, 389.429 835.429, 386.500 836.819 M 587.199 839.986 C 585.384 840.416, 583.694 840.973, 583.443 841.223 C 583.193 841.474, 584.132 846.746, 585.530 852.939 C 586.928 859.132, 587.792 865.080, 587.450 866.157 C 586.706 868.503, 582.420 870.322, 579.416 869.568 C 576.792 868.910, 575.765 866.385, 572.983 853.750 C 571.754 848.170, 570.336 844.008, 569.668 844.019 C 569.026 844.030, 566.426 844.592, 563.891 845.269 L 559.283 846.500 562.133 858.927 C 565.883 875.274, 569.244 879, 580.238 879 C 590.649 879, 598.989 872.159, 599.010 863.602 C 599.015 861.346, 598.040 854.888, 596.843 849.250 C 594.458 838.022, 594.663 838.219, 587.199 839.986 M 455 852.393 C 455 855.887, 456.254 857, 460.191 857 C 462.155 857, 462.194 857.353, 461.419 868.250 C 460.070 887.222, 459.583 885.452, 466.250 885.800 C 469.413 885.965, 472.037 885.965, 472.082 885.800 C 472.127 885.635, 472.689 879.425, 473.332 872 L 474.500 858.500 478.186 858.500 C 481.577 858.500, 481.923 858.231, 482.501 855.148 C 482.846 853.304, 482.884 851.551, 482.585 851.251 C 481.909 850.576, 467.334 849.148, 460.250 849.063 L 455 849 455 852.393 M 529.831 849.724 L 526.163 850.111 526.726 857.556 L 527.289 865 521.144 865 L 515 865 515 858 L 515 851 508.881 851 L 502.762 851 503.409 860.750 C 505.371 890.296, 505.063 888.218, 507.385 887.595 C 508.548 887.283, 511.200 887.021, 513.278 887.014 L 517.056 887 516.380 880.401 C 515.588 872.670, 516.105 872.038, 523.250 872.015 L 528 872 528 879 L 528 886 534.128 886 L 540.257 886 539.603 873.750 C 539.244 867.013, 538.683 858.688, 538.358 855.250 C 537.709 848.390, 538.375 848.821, 529.831 849.724" stroke="none" fill="#326d62" fill-rule="evenodd"/></svg>